<?xml version="1.0" encoding="UTF-8" standalone="no"?>
<!-- Generator: Adobe Illustrator 19.0.0, SVG Export Plug-In . SVG Version: 6.00 Build 0)  -->

<svg
   xmlns:dc="http://purl.org/dc/elements/1.1/"
   xmlns:cc="http://creativecommons.org/ns#"
   xmlns:rdf="http://www.w3.org/1999/02/22-rdf-syntax-ns#"
   xmlns:svg="http://www.w3.org/2000/svg"
   xmlns="http://www.w3.org/2000/svg"
   xmlns:sodipodi="http://sodipodi.sourceforge.net/DTD/sodipodi-0.dtd"
   xmlns:inkscape="http://www.inkscape.org/namespaces/inkscape"
   version="1.1"
   id="Capa_1"
   x="0px"
   y="0px"
   viewBox="0 0 58 58"
   style="enable-background:new 0 0 58 58;"
   xml:space="preserve"
   sodipodi:docname="ssd-svgrepo-com.svg"
   inkscape:version="0.92.3 (2405546, 2018-03-11)"><metadata
   id="metadata297"><rdf:RDF><cc:Work
       rdf:about=""><dc:format>image/svg+xml</dc:format><dc:type
         rdf:resource="http://purl.org/dc/dcmitype/StillImage" /></cc:Work></rdf:RDF></metadata><defs
   id="defs295">
	
	
	
	
	
	
</defs><sodipodi:namedview
   pagecolor="#ffffff"
   bordercolor="#666666"
   borderopacity="1"
   objecttolerance="10"
   gridtolerance="10"
   guidetolerance="10"
   inkscape:pageopacity="0"
   inkscape:pageshadow="2"
   inkscape:window-width="1920"
   inkscape:window-height="1028"
   id="namedview293"
   showgrid="false"
   inkscape:zoom="8"
   inkscape:cx="27.088791"
   inkscape:cy="21.073758"
   inkscape:window-x="-8"
   inkscape:window-y="-8"
   inkscape:window-maximized="1"
   inkscape:current-layer="Capa_1" />

















<g
   id="g262">
</g>
<g
   id="g264">
</g>
<g
   id="g266">
</g>
<g
   id="g268">
</g>
<g
   id="g270">
</g>
<g
   id="g272">
</g>
<g
   id="g274">
</g>
<g
   id="g276">
</g>
<g
   id="g278">
</g>
<g
   id="g280">
</g>
<g
   id="g282">
</g>
<g
   id="g284">
</g>
<g
   id="g286">
</g>
<g
   id="g288">
</g>
<g
   id="g290">
</g>
<path
   inkscape:connector-curvature="0"
   style="fill:#afb6bb"
   d="M 8,55.911 V 2.089 C 8,0.935 8.935,0 10.089,0 L 47.911,0 C 49.065,0 50,0.935 50,2.089 V 55.911 C 50,57.065 49.065,58 47.911,58 H 10.089 C 8.935,58 8,57.065 8,55.911 Z"
   id="path216" /><circle
   style="fill:#e7eced"
   cx="4"
   cy="-12"
   r="1"
   id="circle218"
   transform="rotate(90)" /><circle
   style="fill:#e7eced"
   cx="54"
   cy="-46"
   r="1"
   id="circle220"
   transform="rotate(90)" /><circle
   style="fill:#e7eced"
   cx="54"
   cy="-12"
   r="1"
   id="circle222"
   transform="rotate(90)" /><circle
   style="fill:#e7eced"
   cx="4"
   cy="-46"
   r="1"
   id="circle218-5"
   transform="rotate(90)" /><path
   style="fill:#283238;stroke-width:0.91287094"
   d="m 14.000001,54 c 10,0 19.999999,0 29.999998,0 v 4 H 14.000001 Z"
   id="polygon228"
   inkscape:connector-curvature="0"
   sodipodi:nodetypes="ccccc" /><rect
   id="rect232"
   height="2"
   width="4"
   style="fill:#d3aa6e"
   y="-39"
   x="54"
   transform="rotate(90)" /><rect
   id="rect234"
   height="2"
   width="4"
   style="fill:#d3aa6e"
   y="-36"
   x="54"
   transform="rotate(90)" /><rect
   id="rect236"
   height="2"
   width="4"
   style="fill:#d3aa6e"
   y="-33"
   x="54"
   transform="rotate(90)" /><rect
   id="rect240"
   height="2"
   width="4"
   style="fill:#d3aa6e"
   y="-27.000002"
   x="54"
   transform="rotate(90)" /><rect
   id="rect230-2"
   height="2"
   width="4"
   style="fill:#d3aa6e"
   y="-42"
   x="54"
   transform="rotate(90)" /><rect
   id="rect236-6"
   height="2"
   width="4"
   style="fill:#d3aa6e"
   y="-30"
   x="54"
   transform="rotate(90)" /><rect
   id="rect240-0"
   height="2"
   width="4"
   style="fill:#d3aa6e"
   y="-24"
   x="54"
   transform="rotate(90)" /><rect
   id="rect240-0-6"
   height="2"
   width="4"
   style="fill:#d3aa6e"
   y="-18"
   x="54"
   transform="rotate(90)" /><rect
   id="rect240-0-6-1"
   height="2"
   width="4"
   style="fill:#d3aa6e"
   y="-21"
   x="54"
   transform="rotate(90)" /></svg>